<svg width="25" height="25" viewBox="0 0 25 25" fill="none" xmlns="http://www.w3.org/2000/svg">
<path d="M12.4955 25C9.80992 24.999 7.19605 24.1331 5.041 22.5306C2.88595 20.928 1.30433 18.674 0.530354 16.1024C-0.243618 13.5308 -0.16878 10.7782 0.743787 8.25247C1.65635 5.72669 3.35812 3.56197 5.59706 2.0789C7.836 0.595824 10.4931 -0.126734 13.1747 0.0182307C15.8564 0.163195 18.4201 1.16797 20.4861 2.88376C22.5521 4.59955 24.0106 6.9351 24.6456 9.54454C25.2805 12.154 25.0582 14.8985 24.0115 17.3717C22.744 20.3655 20.361 22.7484 17.3673 24.016C15.8265 24.6698 14.1692 25.0046 12.4955 25ZM3.48563 6.80539V18.1431H8.99852C9.4957 18.1463 9.99121 18.0853 10.4727 17.9614C10.9344 17.8439 11.371 17.6441 11.7618 17.3717C12.1376 17.1039 12.4453 16.7516 12.6601 16.3432C12.9128 15.8219 13.0294 15.245 12.9988 14.6665C12.9682 14.0879 12.7915 13.5266 12.4852 13.0348C12.1045 12.5084 11.5493 12.1342 10.9184 11.9789C11.3805 11.7744 11.7794 11.4501 12.0738 11.0395C12.344 10.6128 12.4791 10.1145 12.4612 9.60983C12.4745 9.15144 12.3855 8.69585 12.2007 8.27618C12.0356 7.92727 11.7828 7.6272 11.467 7.40537C11.1199 7.17496 10.7308 7.01534 10.3219 6.93567C9.83569 6.83637 9.34046 6.78811 8.84424 6.79168L3.48563 6.80539ZM17.5147 9.51041C16.9259 9.50676 16.3426 9.62343 15.8005 9.85325C15.3017 10.0687 14.8515 10.3825 14.4768 10.7761C14.1021 11.1696 13.8107 11.6346 13.62 12.1434C13.4158 12.6917 13.3136 13.2726 13.3183 13.8576C13.311 14.4534 13.4109 15.0457 13.6132 15.6061C13.7953 16.1148 14.0787 16.5814 14.4463 16.9775C14.8116 17.3636 15.2576 17.6644 15.7525 17.8586C16.3104 18.0718 16.9038 18.1765 17.501 18.1671C18.3458 18.1951 19.1802 17.9745 19.9009 17.5329C20.6183 17.0185 21.1346 16.2707 21.3614 15.4176H19.3763C19.2621 15.7206 19.048 15.9757 18.7695 16.1409C18.4225 16.3742 18.0116 16.494 17.5936 16.4838C17.0608 16.517 16.5364 16.3397 16.133 15.9901C15.75 15.5473 15.5523 14.9738 15.5811 14.389H21.5054C21.5492 13.7754 21.496 13.1587 21.3477 12.5617C21.2097 12.0009 20.964 11.4723 20.6243 11.0052C20.2906 10.548 19.8551 10.1748 19.3523 9.91496C18.7836 9.6346 18.1555 9.49581 17.5216 9.51041H17.5147ZM15.1902 7.38137V8.65331H19.7775V7.38137H15.1902ZM5.98152 16.2164V13.1H8.70025C9.16369 13.0788 9.6213 13.21 10.003 13.4736C10.1772 13.627 10.3127 13.8194 10.3985 14.0351C10.4843 14.2507 10.518 14.4836 10.4967 14.7147C10.5075 14.9669 10.4557 15.2177 10.3459 15.445C10.2473 15.6347 10.1022 15.7963 9.92419 15.9147C9.74439 16.0278 9.54586 16.1079 9.33793 16.1512C9.11214 16.1963 8.88249 16.2192 8.65225 16.2198H5.98152V16.2164ZM19.2495 12.956H15.5811C15.5944 12.772 15.6289 12.5903 15.6839 12.4143C15.7455 12.2053 15.8481 12.0107 15.9856 11.8417C16.1434 11.6532 16.3383 11.4992 16.5582 11.3892C16.8424 11.2577 17.1538 11.1954 17.4667 11.2075C17.6917 11.1904 17.9178 11.2213 18.13 11.2982C18.3421 11.375 18.5356 11.496 18.6975 11.6532C19.0023 12.0271 19.198 12.4779 19.2632 12.956H19.2495ZM5.98152 11.3995V8.74587H8.32998C8.54147 8.74527 8.75259 8.76363 8.96081 8.80073C9.15443 8.83231 9.34047 8.89975 9.50935 8.99958C9.67044 9.09604 9.80205 9.23476 9.88991 9.4007C9.99363 9.60165 10.0433 9.82615 10.0339 10.0521C10.0516 10.2455 10.0217 10.4402 9.94707 10.6195C9.87238 10.7987 9.75508 10.957 9.60535 11.0806C9.28355 11.3023 8.89875 11.4141 8.50826 11.3995H5.98152Z" fill="#0B0B0B"/>
</svg>
