<svg width="25" height="25" viewBox="0 0 25 25" fill="none" xmlns="http://www.w3.org/2000/svg">
<g clip-path="url(#clip0_52_8)">
<path fill-rule="evenodd" clip-rule="evenodd" d="M12.5 0C5.59644 0 0 5.59644 0 12.5C0 19.4036 5.59644 25 12.5 25C19.4036 25 25 19.4036 25 12.5C25 5.59644 19.4036 0 12.5 0ZM19.9231 6.57827C20.1488 7.04595 20.2768 7.55475 20.2993 8.07358C20.3113 8.2082 20.3125 10.3538 20.3125 12.4946C20.3125 14.6354 20.3077 16.7846 20.2969 16.9192C20.2729 17.4322 20.148 17.9355 19.9291 18.4001C19.7221 18.8289 19.4239 19.2074 19.0554 19.5091C18.687 19.8107 18.2571 20.0283 17.7959 20.1466C17.4106 20.2416 17.016 20.2932 16.6193 20.3005C16.4306 20.3125 14.4608 20.3125 12.485 20.3125C10.5092 20.3125 8.53937 20.3065 8.34587 20.2981C7.96354 20.2871 7.58335 20.2368 7.21134 20.1478C6.75159 20.0288 6.323 19.8118 5.95499 19.5115C5.58699 19.2113 5.28826 18.835 5.0793 18.4085C4.86297 17.9602 4.75961 17.5503 4.70553 16.8988C4.6875 16.7137 4.6875 15.7605 4.6875 12.5006V9.95714C4.6875 8.14152 4.70571 8.0178 4.75544 7.68005L4.75961 7.65167C4.84854 6.93684 5.16595 6.26987 5.66459 5.75008C5.9222 5.47939 6.22627 5.2571 6.56236 5.09378C7.02025 4.8678 7.43248 4.76202 8.1019 4.70673C8.29299 4.6875 9.24124 4.6875 12.4994 4.6875H15.0461C16.8855 4.69105 16.9891 4.70626 17.3362 4.75725L17.3524 4.75962C18.0666 4.8498 18.7333 5.16612 19.2549 5.66233C19.5313 5.92459 19.7577 6.23496 19.9231 6.57827ZM17.9653 16.2797C18.1322 15.8312 18.2228 15.3579 18.2333 14.8794C18.261 14.264 18.2634 14.0632 18.2634 12.4958C18.2634 10.9284 18.2562 10.7324 18.2285 10.117C18.218 9.63853 18.1274 9.16521 17.9605 8.71666C17.8126 8.33451 17.5865 7.98745 17.2968 7.69768C17.007 7.40792 16.66 7.18181 16.278 7.03383C15.8294 6.86583 15.3555 6.77519 14.8766 6.76579C14.2613 6.73814 14.0618 6.73093 12.4994 6.73093C10.937 6.73093 10.7363 6.73814 10.1162 6.77059C9.63765 6.77999 9.1642 6.87063 8.71604 7.03864C8.33395 7.18662 7.98695 7.41272 7.69722 7.70249C7.4075 7.99226 7.18143 8.33932 7.03347 8.72146C6.86549 9.1697 6.77486 9.64322 6.76547 10.1218C6.73782 10.7372 6.73061 10.938 6.73061 12.5006C6.73061 14.0632 6.73782 14.264 6.77508 14.8794C6.78448 15.358 6.8751 15.8315 7.04309 16.2797C7.19175 16.6615 7.41807 17.0082 7.7077 17.2978C7.99734 17.5875 8.34398 17.8139 8.72565 17.9626C9.17382 18.1306 9.64726 18.2212 10.1258 18.2306C10.7411 18.2583 10.937 18.2655 12.5042 18.2655C14.0714 18.2655 14.2673 18.2583 14.8826 18.2306C15.3612 18.2212 15.8346 18.1306 16.2828 17.9626C16.6644 17.8139 17.0111 17.5875 17.3007 17.2978C17.5903 17.0082 17.8167 16.6615 17.9653 16.2797ZM16.9966 9.09769C16.901 8.84868 16.7541 8.62253 16.5655 8.4339C16.3769 8.24526 16.1508 8.09835 15.9018 8.00266C15.559 7.87515 15.1967 7.80805 14.831 7.80433C14.2228 7.77668 14.0401 7.77067 12.4994 7.77067H11.9826C10.901 7.77067 10.7015 7.77908 10.1691 7.80312C9.80333 7.80685 9.44102 7.87395 9.09822 8.00146C8.84906 8.09707 8.62274 8.24395 8.43393 8.43258C8.24512 8.62121 8.09802 8.8474 8.00215 9.09649C7.87579 9.44007 7.80874 9.80264 7.80385 10.1687C7.7762 10.7769 7.7702 10.9584 7.7702 12.4994C7.7702 14.0404 7.7762 14.2231 7.80385 14.8313C7.80875 15.1966 7.87581 15.5583 8.00215 15.9011C8.09802 16.1502 8.24512 16.3764 8.43393 16.565C8.62274 16.7536 8.84906 16.9005 9.09822 16.9961C9.44111 17.1235 9.80332 17.191 10.1691 17.1957C10.7772 17.2233 10.9599 17.2293 12.4994 17.2293C14.0389 17.2293 14.2228 17.2293 14.831 17.1957C15.1967 17.191 15.5589 17.1235 15.9018 16.9961C16.1504 16.9001 16.3762 16.7532 16.5647 16.5649C16.7533 16.3765 16.9004 16.1508 16.9966 15.9023C17.1241 15.5595 17.1912 15.1971 17.195 14.8313C17.2226 14.2231 17.2286 14.0404 17.2286 12.5006C17.2286 10.9608 17.2286 10.7781 17.195 10.1699C17.1912 9.80372 17.1241 9.44097 16.9966 9.09769ZM12.4994 15.4636C11.7137 15.4636 10.9602 15.1514 10.4046 14.5957C9.84901 14.0401 9.53689 13.2864 9.53689 12.5006C9.53689 11.7148 9.84901 10.9611 10.4046 10.4055C10.9602 9.8498 11.7137 9.53763 12.4994 9.53763C13.2851 9.53763 14.0386 9.8498 14.5942 10.4055C15.1498 10.9611 15.4619 11.7148 15.4619 12.5006C15.4619 13.2864 15.1498 14.0401 14.5942 14.5957C14.0386 15.1514 13.2851 15.4636 12.4994 15.4636ZM15.5797 10.1134C15.4888 10.1134 15.3988 10.0955 15.3148 10.0607C15.2308 10.0259 15.1545 9.9749 15.0902 9.91061C15.0259 9.84632 14.9749 9.76999 14.9401 9.68599C14.9053 9.60199 14.8874 9.51196 14.8874 9.42104C14.8874 9.33012 14.9053 9.24008 14.9401 9.15608C14.9749 9.07208 15.0259 8.99576 15.0902 8.93146C15.1545 8.86717 15.2308 8.81617 15.3148 8.78138C15.3988 8.74658 15.4888 8.72868 15.5797 8.72868C15.6706 8.72868 15.7606 8.74658 15.8446 8.78138C15.9286 8.81617 16.0049 8.86717 16.0692 8.93146C16.1335 8.99576 16.1845 9.07208 16.2192 9.15608C16.254 9.24008 16.2719 9.33012 16.2719 9.42104C16.2719 9.51196 16.254 9.60199 16.2192 9.68599C16.1845 9.76999 16.1335 9.84632 16.0692 9.91061C16.0049 9.9749 15.9286 10.0259 15.8446 10.0607C15.7606 10.0955 15.6706 10.1134 15.5797 10.1134ZM14.4223 12.5006C14.4223 13.5628 13.5614 14.4238 12.4994 14.4238C11.4374 14.4238 10.5765 13.5628 10.5765 12.5006C10.5765 11.4384 11.4374 10.5774 12.4994 10.5774C13.5614 10.5774 14.4223 11.4384 14.4223 12.5006Z" fill="#0B0B0B"/>
</g>
<defs>
<clipPath id="clip0_52_8">
<rect width="25" height="25" fill="white"/>
</clipPath>
</defs>
</svg>
