<svg width="25" height="25" viewBox="0 0 25 25" fill="none" xmlns="http://www.w3.org/2000/svg">
<g clip-path="url(#clip0_52_4)">
<path d="M12.5 0C10.0277 0 7.61099 0.733112 5.55538 2.10663C3.49976 3.48015 1.89761 5.43238 0.951511 7.71646C0.00541602 10.0005 -0.242126 12.5139 0.24019 14.9386C0.722505 17.3634 1.91301 19.5907 3.66117 21.3388C5.40933 23.087 7.63661 24.2775 10.0614 24.7598C12.4861 25.2421 14.9995 24.9946 17.2835 24.0485C19.5676 23.1024 21.5199 21.5002 22.8934 19.4446C24.2669 17.389 25 14.9723 25 12.5C24.9991 9.18508 23.6818 6.00619 21.3378 3.66219C18.9938 1.31818 15.8149 0.000926862 12.5 0ZM8.65385 19.7902H5.507V9.60489H8.65385V19.7902ZM7.07343 8.27273C6.7014 8.27617 6.33671 8.16922 6.02547 7.96539C5.71422 7.76157 5.47041 7.47003 5.32485 7.12764C5.1793 6.78526 5.13854 6.40739 5.20773 6.04184C5.27692 5.67629 5.45296 5.33946 5.71358 5.07396C5.97419 4.80845 6.30769 4.62618 6.67189 4.55021C7.0361 4.47424 7.41465 4.50796 7.75968 4.64713C8.10472 4.7863 8.40074 5.02465 8.61031 5.33205C8.81988 5.63946 8.93359 6.0021 8.93707 6.37413V6.39161C8.93893 6.88745 8.74422 7.36383 8.39557 7.71641C8.04693 8.06899 7.57276 8.26903 7.07693 8.27273H7.07343ZM20.486 19.7902H17.3392V14.4441C17.3392 12.979 16.7902 12.1503 15.6469 12.1503C14.3846 12.1503 13.7273 13.0035 13.7273 14.4336V19.7902H10.6818V9.60489H13.7098V10.979C14.0326 10.4563 14.4855 10.0263 15.0242 9.73091C15.5629 9.43552 16.1689 9.28489 16.7832 9.29371C18.9441 9.29371 20.4895 10.6154 20.4895 13.3427L20.486 19.7902Z" fill="#0B0B0B"/>
</g>
<defs>
<clipPath id="clip0_52_4">
<rect width="25" height="25" fill="white"/>
</clipPath>
</defs>
</svg>
