<svg width="20" height="20" viewBox="0 0 20 20" fill="none" xmlns="http://www.w3.org/2000/svg">
<path fill-rule="evenodd" clip-rule="evenodd" d="M2.5 5.5C2.5 5.08579 2.83579 4.75 3.25 4.75H16.75C17.1642 4.75 17.5 5.08579 17.5 5.5C17.5 5.91421 17.1642 6.25 16.75 6.25H3.25C2.83579 6.25 2.5 5.91421 2.5 5.5Z" fill="#0F0F0F"/>
<path fill-rule="evenodd" clip-rule="evenodd" d="M2.5 10C2.5 9.58579 2.83579 9.25 3.25 9.25H16.75C17.1642 9.25 17.5 9.58579 17.5 10C17.5 10.4142 17.1642 10.75 16.75 10.75H3.25C2.83579 10.75 2.5 10.4142 2.5 10Z" fill="#0F0F0F"/>
<path fill-rule="evenodd" clip-rule="evenodd" d="M2.5 14.5C2.5 14.0858 2.83579 13.75 3.25 13.75H16.75C17.1642 13.75 17.5 14.0858 17.5 14.5C17.5 14.9142 17.1642 15.25 16.75 15.25H3.25C2.83579 15.25 2.5 14.9142 2.5 14.5Z" fill="#0F0F0F"/>
</svg>
